<?xml version="1.0" ?><!-- Uploaded to: SVG Repo, www.svgrepo.com, Generator: SVG Repo Mixer Tools -->
<svg fill="#000000" width="800px" height="800px" viewBox="0 0 24 24" id="Main" xmlns="http://www.w3.org/2000/svg"><title/><path d="M21,4H19V3a1,1,0,0,0-2,0V4H13V3a1,1,0,0,0-2,0V4H7V3A1,1,0,0,0,5,3V4H3A1,1,0,0,0,2,5V21a1,1,0,0,0,1,1H21a1,1,0,0,0,1-1V5A1,1,0,0,0,21,4ZM20,6V8H4V6ZM4,20V10H20V20Z"/><path d="M8,11H6a1,1,0,0,0,0,2H8a1,1,0,0,0,0-2Z"/><path d="M13,11H11a1,1,0,0,0,0,2h2a1,1,0,0,0,0-2Z"/><path d="M18,11H16a1,1,0,0,0,0,2h2a1,1,0,0,0,0-2Z"/><path d="M8,14H6a1,1,0,0,0,0,2H8a1,1,0,0,0,0-2Z"/><path d="M13,14H11a1,1,0,0,0,0,2h2a1,1,0,0,0,0-2Z"/><path d="M18,14H16a1,1,0,0,0,0,2h2a1,1,0,0,0,0-2Z"/><path d="M8,17H6a1,1,0,0,0,0,2H8a1,1,0,0,0,0-2Z"/><path d="M13,17H11a1,1,0,0,0,0,2h2a1,1,0,0,0,0-2Z"/><path d="M18,17H16a1,1,0,0,0,0,2h2a1,1,0,0,0,0-2Z"/></svg>